<?xml version="1.0" encoding="utf-8"?>
<svg xmlns="http://www.w3.org/2000/svg" xmlns:svg="http://www.w3.org/2000/svg" version="1.1" viewBox="0 0 1400 340">
	<title>The titlepage for the Standard Ebooks edition of The Son of the Wolf, by Jack London</title>
	<g aria-label="THE SON OF THE WOLF">
		<path d="m 106.95467,68.245613 h 18.33918 V 130 h 17.59064 V 68.245613 h 18.33919 V 52.807016 h -54.26901 z"/>
		<path d="M 190.14911,99.029239 H 215.038 V 130 h 17.59065 V 52.807016 H 215.038 V 83.590642 H 190.14911 V 52.807016 H 172.55847 V 130 h 17.59064 z"/>
		<path d="M 292.99415,52.807016 H 248.8304 V 130 h 44.16375 v -15.4386 h -26.5731 V 99.029239 h 25.45029 V 83.590642 H 266.42105 V 68.245613 h 26.5731 z"/>
		<path d="m 365.30848,51.403507 c -12.44444,0 -25.16959,9.169591 -25.16959,23.578948 0,8.046784 5.4269,15.251462 14.69006,19.836258 9.16959,4.584795 17.40351,7.111107 17.40351,12.725147 0,7.20468 -7.29825,7.57895 -11.13451,7.57895 -8.60818,0 -18.90058,-8.70176 -18.90058,-8.70176 l -8.79532,14.78363 c 0,0 10.94737,10.19883 29.00584,10.19883 15.06433,0 29.09942,-6.45614 29.09942,-24.88889 0,-10.105264 -9.45029,-17.40351 -18.05848,-21.052632 -8.79532,-3.742691 -16.09357,-6.83041 -16.09357,-11.134504 0,-4.210526 3.18129,-6.923976 9.16959,-6.923976 7.95322,0 15.62574,5.333333 15.62574,5.333333 l 7.11111,-14.035088 c 0,0 -9.91813,-7.298246 -23.95322,-7.298246 z"/>
		<path d="m 401.26754,91.356724 c 0,22.549706 16.09357,40.046786 38.92398,40.046786 22.17544,0 38.83041,-17.49708 38.83041,-40.046786 0,-22.549708 -17.40351,-39.953217 -38.83041,-39.953217 -21.23977,0 -38.92398,17.403509 -38.92398,39.953217 z m 18.99415,0 c 0,-11.508772 6.36258,-23.017544 19.92983,-23.017544 13.66082,0 19.83626,11.508772 19.83626,23.017544 0,11.508776 -5.80117,23.017546 -19.83626,23.017546 -14.40936,0 -19.92983,-11.50877 -19.92983,-23.017546 z"/>
		<path d="m 509.37428,82.093566 h 0.18713 L 540.25147,130 h 17.59065 V 52.807016 h -17.59065 v 47.906434 h -0.18713 L 509.37428,52.807016 H 491.78364 V 130 h 17.59064 z"/>
		<path d="m 601.20907,91.356724 c 0,22.549706 16.09357,40.046786 38.92398,40.046786 22.17543,0 38.83041,-17.49708 38.83041,-40.046786 0,-22.549708 -17.40351,-39.953217 -38.83041,-39.953217 -21.23977,0 -38.92398,17.403509 -38.92398,39.953217 z m 18.99415,0 c 0,-11.508772 6.36257,-23.017544 19.92983,-23.017544 13.66081,0 19.83625,11.508772 19.83625,23.017544 0,11.508776 -5.80117,23.017546 -19.83625,23.017546 -14.40936,0 -19.92983,-11.50877 -19.92983,-23.017546 z"/>
		<path d="M 736.35671,52.807016 H 691.72513 V 130 h 17.59065 V 99.029239 h 24.98245 V 83.590642 H 709.31578 V 68.245613 h 27.04093 z"/>
		<path d="M 770.87282,68.245613 H 789.212 V 130 h 17.59065 V 68.245613 h 18.33918 V 52.807016 h -54.26901 z"/>
		<path d="m 854.06724,99.029239 h 24.88889 V 130 h 17.59065 V 52.807016 H 878.95613 V 83.590642 H 854.06724 V 52.807016 H 836.4766 V 130 h 17.59064 z"/>
		<path d="M 956.91232,52.807016 H 912.74857 V 130 h 44.16375 v -15.4386 h -26.5731 V 99.029239 h 25.45029 V 83.590642 H 930.33922 V 68.245613 h 26.5731 z"/>
		<path d="m 1053.7968,130 h 19.462 l 21.9883,-77.192984 h -19.462 l -13.193,52.959064 h -0.4678 l -14.0351,-52.959064 h -13.2866 l -14.0351,52.959064 h -0.4678 l -13.193,-52.959064 H 987.55116 L 1009.5395,130 h 19.5555 l 12.3509,-43.321638 z"/>
		<path d="m 1098.0804,91.356724 c 0,22.549706 16.0936,40.046786 38.924,40.046786 22.1754,0 38.8304,-17.49708 38.8304,-40.046786 0,-22.549708 -17.4035,-39.953217 -38.8304,-39.953217 -21.2398,0 -38.924,17.403509 -38.924,39.953217 z m 18.9942,0 c 0,-11.508772 6.3625,-23.017544 19.9298,-23.017544 13.6608,0 19.8362,11.508772 19.8362,23.017544 0,11.508776 -5.8011,23.017546 -19.8362,23.017546 -14.4094,0 -19.9298,-11.50877 -19.9298,-23.017546 z"/>
		<path d="m 1206.1872,52.807016 h -17.5907 V 130 h 44.1638 v -15.4386 h -26.5731 z"/>
		<path d="m 1291.0424,52.807016 h -44.6315 V 130 h 17.5906 V 99.029239 h 24.9825 V 83.590642 h -24.9825 V 68.245613 h 27.0409 z"/>
	</g>
	<g aria-label="JACK LONDON">
		<path d="M 432.67928,232.10526 H 419.4863 v 38.17544 c 0,5.82456 -2.8772,8.14035 -6.66667,8.14035 -3.36842,0 -7.50877,-3.92982 -7.50877,-3.92982 l -4.21053,11.01754 c 0,0 5.26316,5.54386 13.54386,5.54386 11.57895,0 18.03509,-6.03509 18.03509,-17.40351 z"/>
		<path d="M 474.78454,232.10526 H 462.57402 L 439.2056,290 h 14.17543 l 4.28071,-11.57895 h 22.03508 L 483.97752,290 h 14.17544 z m 0.42105,34.73685 H 462.15296 L 468.6091,250 h 0.14035 z"/>
		<path d="m 533.95669,278.07018 c -13.26316,0 -19.08772,-9.26316 -19.08772,-17.05264 0,-7.71929 5.82456,-16.98245 19.08772,-16.98245 6.73684,0 11.36842,3.57895 11.36842,3.57895 l 5.61404,-11.22807 c 0,0 -6.45614,-5.33334 -19.01755,-5.33334 -16.42105,0 -31.36842,13.47369 -31.36842,30.10527 0,16.5614 15.01754,29.89473 31.36842,29.89473 12.56141,0 19.01755,-5.33333 19.01755,-5.33333 l -5.61404,-11.22807 c 0,0 -4.63158,3.57895 -11.36842,3.57895 z"/>
		<path d="m 613.75713,290 -26.94737,-30.45614 23.29824,-27.4386 h -16 l -19.85964,23.64913 V 232.10526 H 561.05537 V 290 h 13.19299 V 265.4386 L 595.58169,290 Z"/>
		<path d="M 658.6727,232.10526 H 645.47972 V 290 h 33.12281 V 278.42105 H 658.6727 Z"/>
		<path d="m 687.49396,261.01754 c 0,16.91228 12.07018,30.03509 29.19298,30.03509 16.63158,0 29.12281,-13.12281 29.12281,-30.03509 0,-16.91228 -13.05263,-29.96491 -29.12281,-29.96491 -15.92982,0 -29.19298,13.05263 -29.19298,29.96491 z m 14.24562,0 c 0,-8.63157 4.77193,-17.26315 14.94736,-17.26315 10.24562,0 14.8772,8.63158 14.8772,17.26315 0,8.63158 -4.35088,17.26316 -14.8772,17.26316 -10.80701,0 -14.94736,-8.63158 -14.94736,-17.26316 z"/>
		<path d="m 769.82402,254.07018 h 0.14035 L 792.98192,290 h 13.19298 v -57.89474 h -13.19298 v 35.92983 h -0.14035 L 769.82402,232.10526 H 756.63104 V 290 h 13.19298 z"/>
		<path d="M 819.608,232.10526 V 290 h 16.77193 c 15.92982,0 29.19298,-12.07018 29.19298,-28.98246 0,-16.8421 -13.33333,-28.91228 -29.19298,-28.91228 z m 13.19298,46.10527 v -34.31579 h 2.03509 c 9.82456,0 16.49123,7.50877 16.49123,17.19298 -0.0702,9.68421 -6.73684,17.12281 -16.49123,17.12281 z"/>
		<path d="m 873.82071,261.01754 c 0,16.91228 12.07018,30.03509 29.19299,30.03509 16.63157,0 29.1228,-13.12281 29.1228,-30.03509 0,-16.91228 -13.05263,-29.96491 -29.1228,-29.96491 -15.92983,0 -29.19299,13.05263 -29.19299,29.96491 z m 14.24562,0 c 0,-8.63157 4.77193,-17.26315 14.94737,-17.26315 10.24561,0 14.87719,8.63158 14.87719,17.26315 0,8.63158 -4.35088,17.26316 -14.87719,17.26316 -10.80702,0 -14.94737,-8.63158 -14.94737,-17.26316 z"/>
		<path d="m 956.15078,254.07018 h 0.14035 L 979.30867,290 h 13.19298 v -57.89474 h -13.19298 v 35.92983 h -0.14035 L 956.15078,232.10526 H 942.95779 V 290 h 13.19299 z"/>
	</g>
</svg>
